<svg width="15" height="9" viewBox="0 0 15 9" version="1.1" xmlns="http://www.w3.org/2000/svg" xmlns:xlink="http://www.w3.org/1999/xlink">
<title>video_offline</title>
<desc>Created using Figma</desc>
<g id="Canvas" transform="translate(4332 -1486)">
<g id="video_offline">
<mask id="mask0_outline_ins">
<use xlink:href="#path0_fill" fill="white" transform="translate(-4332 1486)"/>
</mask>
<g mask="url(#mask0_outline_ins)">
<use xlink:href="#path1_stroke_2x" transform="translate(-4332 1486)" fill="#5E5E5E"/>
</g>
</g>
</g>
<defs>
<path id="path0_fill" d="M 10 3L 10 1C 10 0.448 9.552 0 9 0L 1 0C 0.448 0 0 0.448 0 1L 0 8C 0 8.552 0.448 9 1 9L 9 9C 9.552 9 10 8.552 10 8L 10 6L 15 8L 15 1L 10 3Z"/>
<path id="path1_stroke_2x" d="M 10 3L 9.25 3L 9.25 4.10777L 10.2785 3.69636L 10 3ZM 10 6L 10.2785 5.30364L 9.25 4.89223L 9.25 6L 10 6ZM 15 8L 14.7215 8.69636L 15.75 9.10777L 15.75 8L 15 8ZM 15 1L 15.75 1L 15.75 -0.107775L 14.7215 0.303642L 15 1ZM 10.75 3L 10.75 1L 9.25 1L 9.25 3L 10.75 3ZM 10.75 1C 10.75 0.0337865 9.96621 -0.75 9 -0.75L 9 0.75C 9.13779 0.75 9.25 0.862214 9.25 1L 10.75 1ZM 9 -0.75L 1 -0.75L 1 0.75L 9 0.75L 9 -0.75ZM 1 -0.75C 0.0337865 -0.75 -0.75 0.0337865 -0.75 1L 0.75 1C 0.75 0.862214 0.862214 0.75 1 0.75L 1 -0.75ZM -0.75 1L -0.75 8L 0.75 8L 0.75 1L -0.75 1ZM -0.75 8C -0.75 8.96621 0.0337865 9.75 1 9.75L 1 8.25C 0.862214 8.25 0.75 8.13779 0.75 8L -0.75 8ZM 1 9.75L 9 9.75L 9 8.25L 1 8.25L 1 9.75ZM 9 9.75C 9.96621 9.75 10.75 8.96621 10.75 8L 9.25 8C 9.25 8.13779 9.13779 8.25 9 8.25L 9 9.75ZM 10.75 8L 10.75 6L 9.25 6L 9.25 8L 10.75 8ZM 9.72146 6.69636L 14.7215 8.69636L 15.2785 7.30364L 10.2785 5.30364L 9.72146 6.69636ZM 15.75 8L 15.75 1L 14.25 1L 14.25 8L 15.75 8ZM 14.7215 0.303642L 9.72146 2.30364L 10.2785 3.69636L 15.2785 1.69636L 14.7215 0.303642Z"/>
</defs>
</svg>
